# xmcd
#
# Track frame offsets:
#	150
#	11620
#	27439
#	41534
#	50784
#	64695
#	75912
#	88814
#	104204
#	114866
#	124672
#	135205
#	145129
#	157823
#	172617
#	182374
#	195146
#	212607
#	223465
#	238796
#	247174
#	256112
#	267360
#	277331
#	288552
#	299904
#	309393
#
# Disc length: 4397 seconds
#
# Revision: 0
# Processed by: cddbd v1.5.1PL2 Copyright (c) Steve Scherf et al.
# Submitted via: SynApp - FreeCDDB Version: 2.0
#
DISCID=8d112b1b
DTITLE=Elvis Presley - Elvis
DYEAR=1900
DGENRE=Rock and Roll
TTITLE0=6119b elvis presley - little sister
TTITLE1=Always on my mind - Always on my mind
TTITLE2=Elvis Presley - Are You Lonesome Tonight
TTITLE3=Elvis Presley - Blue Suede Shoes
TTITLE4=elvis presley - can't help falling in love
TTITLE5=Elvis Presley - Crying In The Chapel
TTITLE6=Elvis Presley - Don't Cry Daddy
TTITLE7=Elvis Presley - Gospel - Peace In The Valley
TTITLE8=Elvis Presley - Guitar Man
TTITLE9=Elvis Presley - His Latest Flame
TTITLE10=Elvis Presley - Hound Dog
TTITLE11=Elvis Presley - I'm All Shook Up
TTITLE12=Elvis Presley - In The Getto
TTITLE13=Elvis Presley - Kentucky Rain
TTITLE14=Elvis Presley - King Creole
TTITLE15=Elvis Presley - Love Me Tender
TTITLE16=Elvis Presley - My Way
TTITLE17=Elvis Presley - Spanish Eyes
TTITLE18=Elvis Presley - Suspicious Minds
TTITLE19=Elvis Presley - Teddy Bear
TTITLE20=Elvis Presley - Tutti Frutti
TTITLE21=Elvis Presley - Unchained Melody
TTITLE22=Elvis Presley - Viva Las Vegas (1)
TTITLE23=Elvis Presley - Yesterday (Beatles cover)
TTITLE24=Elvis presly - Blue hawaii
TTITLE25=Elvis_Presley - King Of The Road
TTITLE26=Elvis_Presley_ - - Dixie
EXTD=
EXTT0=
EXTT1=
EXTT2=
EXTT3=
EXTT4=
EXTT5=
EXTT6=
EXTT7=
EXTT8=
EXTT9=
EXTT10=
EXTT11=
EXTT12=
EXTT13=
EXTT14=
EXTT15=
EXTT16=
EXTT17=
EXTT18=
EXTT19=
EXTT20=
EXTT21=
EXTT22=
EXTT23=
EXTT24=
EXTT25=
EXTT26=
PLAYORDER=
